<svg xmlns="http://www.w3.org/2000/svg" viewBox="0 0 760.04 427.37"><defs><style>.cls-1{fill:#46c2cb;}</style></defs><g id="Layer_2" data-name="Layer 2"><g id="Layer_1-2" data-name="Layer 1"><path class="cls-1" d="M323.28,205.69c-2.47-11-8.43-19.26-13.53-24.77-9.32,7.06-12.17,20.24-8.93,31.17,3,10.23,5.25,21,5.54,31.68.75,27.43.23,54.89.2,82.34,0,.62-.13,1.24-.29,2.61-5.36-3.37-10.15-7-15.42-9.53-5.11-2.49-6.79-5.72-6.67-11.44.41-19.83.54-39.68,0-59.5a90.94,90.94,0,0,0-3.95-24.71c-2.09-6.61-6.69-12.43-10.52-19.22-6.35,5.28-10,11.13-11.67,17.64a136.24,136.24,0,0,0-4,25.22c-.67,11.06-.18,22.2-.16,33.31,0,1.7.15,3.41.23,5.12l1.24.13a44.07,44.07,0,0,0,.48-4.56c0-12.22,0-24.44.07-36.66.06-9.3,1.66-18.31,5.75-26.75a12.23,12.23,0,0,1,3.48-4.55c-.9,2.78-1.79,5.57-2.7,8.35-4,12.14-3.63,24.72-3.67,37.25-.06,14.25,0,28.51,0,42.64-17.45-4.9-34.3-10.34-51.49-14.25s-34.59-6.26-52.34-10c2.63-.65,5.25-1.74,7.91-1.87,6.5-.29,13,0,19.51-.2,11.23-.37,21.92-2.74,29.87-11.36,3.8-4.13,6.58-9.2,10-14.17,1.23,8.87,2.54,17.84,9,25.33.09-1.6.17-3.2.26-4.81.8-15,.77-30.14,2.63-45,2-16.12,9.45-30.12,21.14-41.69,3.55-3.5,7.6-6.84,10-11.08,2.16-3.87,2.52-8.82,3.33-13.35a29,29,0,0,0,.08-6c.65,5.07.7,11.47,2.55,17.3,1,3.11,5.11,5.22,8.14,8.09,2.82-4.63,4.86-9,7.79-12.57,5.62-6.93,11.83-13.37,17.58-20.19,1.18-1.41,1.51-3.57,2.1-5.43s1-3.8,1.52-5.71l1.37-.15c.59,1.91,1.12,3.84,1.79,5.73s1,4.1,2.26,5.55c6.58,7.82,14.28,14.84,19.94,23.26,9.82,14.62,13.14,31.57,13.22,48.95.21,48.08.07,96.16.06,144.24,0,1.19-.21,2.39-.37,4.08-7.31-7.54-14.32-14.55-21-21.86-1-1.14-.87-3.59-.88-5.43-.1-43.37-.25-120.43-.25-120.43A49.11,49.11,0,0,0,323.28,205.69Z"/><path class="cls-1" d="M464.66,110.23c0,3-.2,6,0,9,.29,3.41,1.19,6.78,1.41,10.19.17,2.83-.79,5.8-.28,8.53.58,3.08,1.62,6.52,3.62,8.76,2.22,2.49,6,3.53,8.65,5.69a105.39,105.39,0,0,1,8.27,8.11c1,1,1.71,2.33,2.86,3,28.81,17.62,39,44.66,38.29,76.82-.17,8.47-2.1,16.91-3.24,25.44,5.74,1.75,8.28-1.49,12.31-16.69a20.83,20.83,0,0,1,1.3,2.14c6.54,15.12,18.45,22.54,34.5,23.61,7.27.49,14.59.13,21.87.45,3.14.14,6.25,1,9.37,1.6-.06.55-.11,1.09-.16,1.64-7.09,1-14.22,1.69-21.26,2.94-13,2.29-25.9,4.69-38.77,7.42-8.85,1.88-17.65,2.28-26.39.18-3.54-.86-5.36.06-7.52,2.8-15.75,20-39.21,28.38-60.52,21.7-17.54-5.51-29.4-17.53-37.95-33.29-18.64-34.35-12.53-80.27,14.25-106.8a65.37,65.37,0,0,1,6.13-5.26c4.53-3.48,10.09-5.6,12.62-11.59.88-2.09,4.16-3.18,6.37-4.7,2.86-2,6.06-3.57,8.53-5.94,2.75-2.64,5.08-5.83,1.84-9.95-.58-.75-.2-2.37,0-3.56.81-5.7,1.75-11.39,2.52-17.1a40,40,0,0,0,0-5.14Zm36.51,145.09c1.77-1.21,2.14-1.33,2.25-1.57a10,10,0,0,0,.82-2.21c3.88-17.7,1.73-34.5-8.52-49.63-15.43-22.79-43.89-23.78-61.21-2.44-17.14,21.13-16.34,55.93,1.75,76.13,13.21,14.74,33.76,17.37,48.87,6.26,7.66-5.64,7.63-5.62,2.61-13.37-1.29-2-3.29-3.64-1-6.64,13.92-18.18,12.59-37.09,1.72-56-2.74-4.75-6.86-8.71-10.35-13,4.84,2.86,9.71,6,13.1,10.34,10.73,13.7,13.18,29.47,10,46.34C500.91,251.07,501.17,252.73,501.17,255.32Z"/><path class="cls-1" d="M498.05,364.18c3.42-5.21,3.42-5.21-3.11-8.45,4.63-7.31,12.68-9,19.86-11.61,46.45-17.21,94.72-24.48,144.05-25.48,11.1-.23,22.21.19,33.31.19,2.84,0,4.64.81,6,3.57,2.73,5.71,8,8.71,13.76,10.12,10.76,2.65,21.73,4.46,32.53,7a42.77,42.77,0,0,1,11,4.34c1.92,1.07,3.13,3.44,4.67,5.22l-.82,1.19c-4.2-.46-8.41-.86-12.6-1.37-53.3-6.44-106.67-7.68-159.93-.46-22.58,3.06-44.86,8.24-67.25,12.63-5.36,1.06-10.55,3-15.9,4.15C501.91,365.53,500,364.57,498.05,364.18Z"/><path class="cls-1" d="M0,349.76c2.11-6,6.58-7.89,11.14-9,8.17-1.95,16.53-3.06,24.69-5a111.47,111.47,0,0,0,18-5.81A16.29,16.29,0,0,0,61,323.38c1.76-3.09,3.69-4.1,7-4.22,50.1-1.89,99.56,2.44,147.91,16.1,14.61,4.13,28.77,9.85,43.07,15,4.6,1.67,6.35,5.73,4.34,9.85-2.33,4.78-5.08,6.46-10.12,4.89a475.93,475.93,0,0,0-95-18.77c-51.08-5-102-3.39-152.87,3.1C3.85,349.54,2.3,349.59,0,349.76Z"/><path class="cls-1" d="M682.53,312c-9.94,0-18.65-.06-27.35,0-39.85.31-79.12,5.19-117.45,16.17a388.71,388.71,0,0,0-41.52,14.88c-6.21,2.57-9.77-2.21-14.86-2.18-.1-6.17,3.89-8.76,7.92-10.83,40.9-20.94,84.46-32.4,130.15-36.08,1.46-.12,3.6,0,4.39.89,4.67,5.35,11,5.87,17.34,6.51,9,.92,18,1.32,27,2.44C673.38,304.48,678.58,306,682.53,312Z"/><path class="cls-1" d="M77.83,309.78c3.21-1.61,6.27-4.12,9.65-4.66,9.53-1.54,19.18-2.29,28.79-3.3,7.08-.74,14.36-.73,19.62-6.88.68-.8,2.65-.82,4-.71,28.57,2.36,56.71,7.25,83.71,16.95,16.8,6,33,13.68,49.46,20.7a53.15,53.15,0,0,1,6.21,3.64c-3.93,2.74-7.59,5.42-11.41,7.85-.69.44-2.14.1-3.07-.29-51.55-22-105.68-30.77-161.39-31.43-6.66-.08-13.32.06-20,.09h-5Z"/><path class="cls-1" d="M383.83,358c0-5.84,0-11.69,0-17.53,0-2.48.95-3.86,3.66-3.79,3.43.1,6.86,0,10.3,0l1,1.35L385,358.39Z"/><path class="cls-1" d="M390.67,328.34c-6.47-.06-9-3.64-6.68-9.94.35-.95,2-1.84,3.18-2,2.5-.3,5.06,0,7.59-.12,2.71-.09,3.47,1.29,3.62,3.8C398.84,328.19,398.71,328.41,390.67,328.34Z"/><path class="cls-1" d="M391.31,208.54c-6.88-1-10-5.95-7.18-11.74a4,4,0,0,1,2.55-1.52,18.09,18.09,0,0,1,3.76-.11c8.13,0,9.75,1.65,7.52,9.57C397.46,206.49,393.61,207.3,391.31,208.54Z"/><path class="cls-1" d="M391.37,248c-1.43,0-3.06.43-4.22-.12-1.34-.64-3.09-2.06-3.24-3.31-.94-8.05,4.64-11.83,12.5-8.59a4.18,4.18,0,0,1,1.82,2.4,9.15,9.15,0,0,1,0,2.82C398.37,248.12,399.53,248.05,391.37,248Z"/><path class="cls-1" d="M391.56,276c6.13,0,9.16,4.77,6.45,10.44a3.76,3.76,0,0,1-2.54,1.61,33.63,33.63,0,0,1-5.22.11c-6.32-.06-6.46-.2-6.44-6.36C383.82,276,383.82,276,391.56,276Z"/><path class="cls-1" d="M391.56,296.23c6.31-.08,9.07,4.27,6.36,10.21a3.76,3.76,0,0,1-2.42,1.78,23.9,23.9,0,0,1-4.72.15c-6.6,0-9.18-3.8-6.74-10.19a4.23,4.23,0,0,1,2.8-1.87A23.19,23.19,0,0,1,391.56,296.23Z"/><path class="cls-1" d="M390.72,267.94c-6.15,0-9.22-4.61-6.69-10.29a3.93,3.93,0,0,1,2.49-1.62,16.87,16.87,0,0,1,3.77-.14c8.16,0,9.54,1.57,7.92,9.68a3.61,3.61,0,0,1-2.31,2.26A24.15,24.15,0,0,1,390.72,267.94Z"/><path class="cls-1" d="M390.91,214.85c6.95.68,9.44,4.05,7.22,10.42a4.15,4.15,0,0,1-2.67,2.07,19.42,19.42,0,0,1-4.71.18c-6.54-.05-9.41-4-6.46-9.81C385.12,216.06,388.63,215.77,390.91,214.85Z"/><path class="cls-1" d="M384,26.66a11,11,0,0,1,1.84-4.73,10.6,10.6,0,0,1,2.11-2.25l2.5,2.64c-4.28,1.18-5.73,4.69-3.68,9.18A14.57,14.57,0,0,1,387.33,43c-.37,1.06.41,3,1.28,3.91,7.76,8.34,8.06,14.72,1.31,23.94a6.83,6.83,0,0,0-.67,5.49c2.08,5.69,6.63,8.63,12.42,9.88,2.58.56,5.1,1.37,7.68,2.06-2.87,4.22-5.91,7.74-7.89,11.78-4.79,9.86-2.74,20.57-2.89,31,0,.76,2.38,2.14,3.68,2.19,6.5.23,13,.1,19.52.1h5.63l1.15,1.28c-1.76,2.5-3.23,5.29-5.37,7.41-1.87,1.85-4.54,2.85-6.77,4.36a29.94,29.94,0,0,0-12.06,17.13c-1.68,5.78-3.36,11.58-5.52,17.19-1.43,3.73-4,6.75-8,7.3.41-6.18.95-12.23,1.14-18.29a25.13,25.13,0,0,0-1.08-6.55c-1-4-3.38-6.64-7.74-6.17s-4.17,4.25-4.19,7.35q-.12,33.81-.08,67.61,0,69.5.11,139c0,1.52.15,3,.24,4.89.88-.44,1.4-.52,1.61-.83,7.61-11.11,15-22.4,22.82-33.35,8.27-11.55,11.5-23.85,7.42-37.72a6.64,6.64,0,0,1-.18-1.41c0-.12.16-.25.43-.65,10.57,14.16,23.77,24.06,43.44,25.94-35.76,25.59-60.38,58.15-74.87,99.58l-2.07-4.44c-5.11-10.9-10.35-21.74-15.26-32.72-1.43-3.19-2.75-6.8-2.75-10.23q-.22-109-.1-218c0-2.06-.11-4.12-.09-6.19.05-4.78-1.68-8.5-5.83-11.21-3.63-2.38-6.59-5.42-6.44-11.29a63.9,63.9,0,0,0,8.89-.13c1.24-.17,3.27-1.76,3.26-2.7-.07-7.91.53-16-1.18-23.64-1.47-6.49-5.73-12.34-9-19.06,2-.56,5.21-1.55,8.47-2.36,5.31-1.31,9.17-4.42,11-9.54A5.76,5.76,0,0,0,368,71c-6.87-8.28-6.69-16.65,1.09-24,1.78-1.68,2.33-2.87,1.18-5.21-2.05-4.16-1.05-8,2.12-11.33a52.4,52.4,0,0,1,4.08-3.75c2.18-1.93,3.74-6.45.74-18l0-1a4.14,4.14,0,0,0,.62-1.16c.65-1.7.71-4.1,1.33-6.58.08.54.22,1.37.43,2.39.29,1.43.55,2.46.61,2.69a25.68,25.68,0,0,1,.32,7.51h0l0,.64h0A28.66,28.66,0,0,0,384,26.66Z"/></g></g></svg>