<svg xmlns="http://www.w3.org/2000/svg" viewBox="0 0 42.18 57.22"><defs><style>.cls-1{fill:#fff;}</style></defs><g id="Layer_2" data-name="Layer 2"><g id="Layer_1-2" data-name="Layer 1"><path class="cls-1" d="M21.06,47.65c-5.94,0-11.89,0-17.83,0a.85.85,0,0,1-.88-.51c-2.45-4.6-3.2-9.36-1.22-14.31a14.79,14.79,0,0,1,5.34-6.23C8.62,25,11,23.75,13.25,22.37a29.93,29.93,0,0,0,5.17-3.64c.26-.24.49-.52.76-.76a3.05,3.05,0,0,0,1-2.84c0-.35-.24-.35-.46-.43A7.64,7.64,0,0,1,20,.07a1.1,1.1,0,0,1,1.29.34,1,1,0,0,1-.13,1.25,4.78,4.78,0,0,0,2.43,7.49,4.73,4.73,0,0,0,4.05-.64A4.73,4.73,0,0,0,28,8.23a.88.88,0,0,1,1.15,0,.91.91,0,0,1,.33,1.06,7.69,7.69,0,0,1-7,5.78c-.35,0-.37.15-.41.45a2.68,2.68,0,0,0,.84,2.3,20.47,20.47,0,0,0,4.17,3.37c2.56,1.65,5.26,3.06,7.78,4.78a22.44,22.44,0,0,1,3.71,3.1,13,13,0,0,1,3.57,10.51,17.6,17.6,0,0,1-2.24,7.55.93.93,0,0,1-.94.53C33,47.64,27,47.65,21.06,47.65Z"/><path class="cls-1" d="M21.11,57.22H1.44C.3,57.22,0,57,0,55.81s0-2.19,0-3.29a2.87,2.87,0,0,1,3-3H39.16a2.87,2.87,0,0,1,3,3V56c0,.93-.32,1.24-1.26,1.24Z"/></g></g></svg>